<svg width="472" height="402" viewBox="0 0 472 402" fill="none" xmlns="http://www.w3.org/2000/svg">
<g filter="url(#filter0_f_1_901)">
<rect x="32" y="64" width="349" height="258" rx="16" fill="#D9D9D9" fill-opacity="0.75" style="mix-blend-mode:multiply"/>
</g>
<mask id="mask0_1_901" style="mask-type:alpha" maskUnits="userSpaceOnUse" x="48" y="47" width="799" height="245">
<path d="M73.6 292C64.6391 292 60.1587 292 56.7362 290.256C53.7256 288.722 51.2779 286.274 49.7439 283.264C48 279.841 48 275.361 48 266.4L48 47L847 47L847 266.4C847 275.361 847 279.841 845.256 283.264C843.722 286.274 841.274 288.722 838.264 290.256C834.841 292 830.361 292 821.4 292L73.6 292Z" fill="url(#paint0_linear_1_901)"/>
</mask>
<g mask="url(#mask0_1_901)">
</g>
<mask id="mask1_1_901" style="mask-type:alpha" maskUnits="userSpaceOnUse" x="48" y="48" width="800" height="242">
<path d="M48 73.6C48 64.6392 48 60.1587 49.7439 56.7362C51.2779 53.7256 53.7256 51.2779 56.7362 49.7439C60.1587 48 64.6392 48 73.6 48H848V290H73.6C64.6391 290 60.1587 290 56.7362 288.256C53.7256 286.722 51.2779 284.274 49.7439 281.264C48 277.841 48 273.361 48 264.4V73.6Z" fill="url(#paint1_linear_1_901)"/>
</mask>
<g mask="url(#mask1_1_901)">
<g clip-path="url(#clip0_1_901)">
<path d="M48 73.6C48 64.6392 48 60.1587 49.7439 56.7362C51.2779 53.7256 53.7256 51.2779 56.7362 49.7439C60.1587 48 64.6392 48 73.6 48H848V292H73.6C64.6391 292 60.1587 292 56.7362 290.256C53.7256 288.722 51.2779 286.274 49.7439 283.264C48 279.841 48 275.361 48 266.4V73.6Z" fill="#F1F1F1"/>
<circle cx="102" cy="108" r="6" fill="#00A656"/>
<path opacity="0.8" d="M122.228 114.27C119.564 114.27 117.476 112.632 117.476 109.554V101.238H119.618V109.428C119.618 111.228 120.608 112.218 122.228 112.218C123.866 112.218 124.838 111.228 124.838 109.428V101.238H126.998V109.554C126.998 112.632 124.91 114.27 122.228 114.27ZM132.278 114H130.082V101.238H132.278V114ZM139.043 107.196C140.213 107.196 140.969 106.458 140.969 105.486C140.969 104.604 140.231 103.83 139.043 103.83C137.855 103.83 137.135 104.604 137.135 105.486C137.135 106.458 137.891 107.196 139.043 107.196ZM139.043 112.452C140.465 112.452 141.239 111.624 141.239 110.67C141.239 109.716 140.465 108.87 139.043 108.87C137.639 108.87 136.865 109.716 136.865 110.67C136.865 111.624 137.639 112.452 139.043 112.452ZM139.043 114.27C136.379 114.27 134.723 112.83 134.723 110.886C134.723 109.554 135.641 108.456 136.883 108.024C135.767 107.61 134.993 106.512 134.993 105.36C134.993 103.416 136.703 102.066 139.043 102.066C141.383 102.066 143.111 103.416 143.111 105.36C143.111 106.494 142.337 107.61 141.221 108.024C142.445 108.456 143.381 109.554 143.381 110.886C143.381 112.83 141.725 114.27 139.043 114.27ZM158.508 104.226L156.564 104.838C156.438 104.046 155.772 102.876 154.062 102.876C152.766 102.876 151.866 103.74 151.866 104.712C151.866 105.522 152.37 106.134 153.36 106.35L155.196 106.728C157.446 107.178 158.652 108.6 158.652 110.4C158.652 112.38 157.05 114.27 154.134 114.27C150.894 114.27 149.4 112.182 149.202 110.346L151.218 109.77C151.344 111.102 152.298 112.326 154.134 112.326C155.664 112.326 156.456 111.552 156.456 110.562C156.456 109.734 155.844 109.068 154.746 108.834L152.946 108.456C151.002 108.06 149.706 106.782 149.706 104.874C149.706 102.732 151.668 100.968 154.044 100.968C157.05 100.968 158.22 102.804 158.508 104.226ZM163.257 102.552V105.234H165.075V107.088H163.257V111.156C163.257 111.93 163.599 112.254 164.373 112.254C164.661 112.254 165.003 112.2 165.093 112.182V113.91C164.967 113.964 164.571 114.108 163.815 114.108C162.195 114.108 161.187 113.136 161.187 111.498V107.088H159.567V105.234H160.017C160.953 105.234 161.367 104.64 161.367 103.866V102.552H163.257ZM172.783 113.028C172.351 113.82 171.325 114.252 170.299 114.252C168.211 114.252 166.987 112.704 166.987 110.76V105.234H169.075V110.382C169.075 111.462 169.579 112.38 170.839 112.38C172.045 112.38 172.675 111.57 172.675 110.418V105.234H174.763V112.398C174.763 113.118 174.817 113.676 174.853 114H172.855C172.819 113.802 172.783 113.388 172.783 113.028ZM178.89 109.59C178.89 111.264 179.826 112.38 181.248 112.38C182.616 112.38 183.57 111.246 183.57 109.572C183.57 107.898 182.634 106.854 181.266 106.854C179.898 106.854 178.89 107.916 178.89 109.59ZM185.586 100.968V112.398C185.586 113.19 185.658 113.856 185.676 114H183.678C183.642 113.802 183.588 113.226 183.588 112.866C183.174 113.604 182.256 114.216 181.014 114.216C178.494 114.216 176.802 112.236 176.802 109.59C176.802 107.07 178.512 105 180.978 105C182.508 105 183.282 105.702 183.552 106.26V100.968H185.586ZM190.241 114H188.171V105.234H190.241V114ZM187.847 102.156C187.847 101.4 188.459 100.788 189.197 100.788C189.953 100.788 190.565 101.4 190.565 102.156C190.565 102.912 189.953 103.506 189.197 103.506C188.459 103.506 187.847 102.912 187.847 102.156ZM196.807 112.398C198.103 112.398 199.255 111.444 199.255 109.608C199.255 107.79 198.103 106.854 196.807 106.854C195.529 106.854 194.359 107.79 194.359 109.608C194.359 111.426 195.529 112.398 196.807 112.398ZM196.807 104.964C199.435 104.964 201.361 106.926 201.361 109.608C201.361 112.308 199.435 114.27 196.807 114.27C194.197 114.27 192.271 112.308 192.271 109.608C192.271 106.926 194.197 104.964 196.807 104.964ZM209.481 106.71L207.393 106.566C207.375 106.404 207.339 106.134 207.339 105.9C207.339 103.884 208.851 102.066 211.497 102.066C214.071 102.066 215.601 103.74 215.601 105.738C215.601 107.25 214.755 108.492 213.351 109.356L211.083 110.76C210.525 111.102 210.057 111.516 209.895 112.092H215.673V114H207.231C207.267 112.002 207.969 110.436 210.003 109.176L211.929 107.97C212.973 107.322 213.423 106.62 213.423 105.774C213.423 104.82 212.775 103.956 211.461 103.956C210.093 103.956 209.427 104.91 209.427 106.116C209.427 106.296 209.463 106.512 209.481 106.71ZM219.517 108.168C219.517 110.706 220.291 112.362 222.145 112.362C223.999 112.362 224.755 110.706 224.755 108.168C224.755 105.63 223.999 103.974 222.145 103.974C220.273 103.974 219.517 105.648 219.517 108.168ZM217.375 108.168C217.375 105.162 218.563 102.066 222.145 102.066C225.709 102.066 226.897 105.18 226.897 108.168C226.897 111.174 225.709 114.27 222.145 114.27C218.563 114.27 217.375 111.174 217.375 108.168ZM230.768 106.71L228.68 106.566C228.662 106.404 228.626 106.134 228.626 105.9C228.626 103.884 230.138 102.066 232.784 102.066C235.358 102.066 236.888 103.74 236.888 105.738C236.888 107.25 236.042 108.492 234.638 109.356L232.37 110.76C231.812 111.102 231.344 111.516 231.182 112.092H236.96V114H228.518C228.554 112.002 229.256 110.436 231.29 109.176L233.216 107.97C234.26 107.322 234.71 106.62 234.71 105.774C234.71 104.82 234.062 103.956 232.748 103.956C231.38 103.956 230.714 104.91 230.714 106.116C230.714 106.296 230.75 106.512 230.768 106.71ZM238.356 111.444V109.104L243.324 102.336H246.096V109.536H248.058V111.444H246.096V114H243.972V111.444H238.356ZM243.972 109.536V104.514L240.3 109.536H243.972Z" fill="#1B1B1B"/>
<path d="M97.235 126.783H100.238C101.993 126.783 103.02 127.823 103.02 129.279C103.02 130.267 102.448 130.969 101.642 131.268C102.695 131.528 103.306 132.464 103.306 133.491C103.306 134.947 102.149 136 100.459 136H97.235V126.783ZM98.509 130.813H100.095C101.122 130.813 101.733 130.202 101.733 129.344C101.733 128.473 101.096 127.901 100.043 127.901H98.509V130.813ZM98.509 134.882H100.277C101.304 134.882 102.006 134.31 102.006 133.413C102.006 132.529 101.447 131.905 100.329 131.905H98.509V134.882ZM108.381 129.682V130.982C108.199 130.956 108.017 130.943 107.848 130.943C106.821 130.943 106.132 131.489 106.132 132.867V136H104.91V129.747H106.106V130.839C106.561 129.877 107.341 129.643 107.978 129.643C108.147 129.643 108.316 129.669 108.381 129.682ZM109.217 134.323C109.217 133.205 110.036 132.581 111.115 132.425L112.805 132.178C113.182 132.126 113.286 131.931 113.286 131.71C113.286 131.099 112.883 130.592 111.934 130.592C111.076 130.592 110.595 131.125 110.517 131.853L109.347 131.58C109.477 130.384 110.556 129.552 111.908 129.552C113.78 129.552 114.508 130.618 114.508 131.84V134.973C114.508 135.519 114.56 135.844 114.586 136H113.39C113.364 135.844 113.325 135.61 113.325 135.155C113.052 135.597 112.428 136.195 111.31 136.195C110.036 136.195 109.217 135.311 109.217 134.323ZM111.479 135.168C112.48 135.168 113.286 134.687 113.286 133.322V133.036L111.375 133.322C110.855 133.4 110.465 133.699 110.465 134.258C110.465 134.726 110.855 135.168 111.479 135.168ZM117.282 132.854C117.282 134.141 117.945 135.09 119.115 135.09C120.233 135.09 120.922 134.115 120.922 132.828C120.922 131.541 120.246 130.657 119.128 130.657C118.01 130.657 117.282 131.567 117.282 132.854ZM120.935 135.155V135.051C120.636 135.649 119.973 136.169 118.998 136.169C117.165 136.169 116.034 134.713 116.034 132.854C116.034 131.086 117.23 129.578 118.998 129.578C120.103 129.578 120.701 130.124 120.909 130.631V126.588H122.118V134.843C122.118 135.441 122.17 135.896 122.183 136H121C120.974 135.857 120.935 135.532 120.935 135.155ZM125.314 136H124.105V129.747H125.314V136ZM123.832 127.381C123.832 126.887 124.222 126.497 124.703 126.497C125.197 126.497 125.587 126.887 125.587 127.381C125.587 127.862 125.197 128.252 124.703 128.252C124.222 128.252 123.832 127.862 123.832 127.381ZM128.514 132.386V136H127.292V129.747H128.488V130.644C128.943 129.864 129.684 129.565 130.412 129.565C131.907 129.565 132.648 130.644 132.648 132.035V136H131.426V132.243C131.426 131.372 131.062 130.67 129.97 130.67C129.008 130.67 128.514 131.437 128.514 132.386ZM134.137 136.338L135.32 136.065C135.411 136.936 136.074 137.599 137.023 137.599C138.336 137.599 138.934 136.923 138.934 135.571V134.674C138.635 135.246 137.959 135.701 137.023 135.701C135.359 135.701 134.15 134.44 134.15 132.672C134.15 130.982 135.307 129.63 137.023 129.63C137.985 129.63 138.635 129.994 138.947 130.618V129.747H140.156V135.532C140.156 137.118 139.376 138.665 137.023 138.665C135.463 138.665 134.293 137.677 134.137 136.338ZM137.205 134.674C138.258 134.674 138.986 133.881 138.986 132.672C138.986 131.463 138.258 130.67 137.205 130.67C136.126 130.67 135.398 131.463 135.398 132.672C135.398 133.894 136.1 134.674 137.205 134.674ZM151.492 136L150.322 134.778C149.568 135.623 148.762 136.156 147.735 136.156C145.993 136.156 145.07 134.986 145.07 133.803C145.07 132.607 145.72 131.957 146.695 131.229L146.825 131.125L146.656 130.943C146.227 130.488 145.551 129.786 145.551 128.889C145.551 127.394 146.786 126.588 147.93 126.588C149.321 126.588 150.374 127.459 150.374 128.837C150.374 129.747 149.724 130.397 149.074 130.878L148.606 131.229L150.322 133.01L152.376 130.722V132.399L151.128 133.842L153.221 136H151.492ZM147.748 134.986C148.45 134.986 148.957 134.531 149.464 133.972L149.503 133.92L147.631 131.957L147.163 132.308C146.721 132.646 146.383 133.062 146.383 133.699C146.383 134.323 146.903 134.986 147.748 134.986ZM146.812 128.811C146.812 129.331 147.215 129.786 147.514 130.098L147.8 130.41L148.424 129.942C148.97 129.539 149.113 129.188 149.113 128.798C149.113 128.187 148.619 127.68 147.943 127.68C147.41 127.68 146.812 128.083 146.812 128.811ZM158.868 136H157.646V126.588H158.868V136ZM163.627 135.103C164.667 135.103 165.577 134.323 165.577 132.867C165.577 131.424 164.667 130.644 163.627 130.644C162.587 130.644 161.677 131.424 161.677 132.867C161.677 134.323 162.587 135.103 163.627 135.103ZM163.627 129.552C165.499 129.552 166.825 130.969 166.825 132.867C166.825 134.778 165.499 136.195 163.627 136.195C161.755 136.195 160.429 134.778 160.429 132.867C160.429 130.969 161.755 129.552 163.627 129.552ZM167.97 136.338L169.153 136.065C169.244 136.936 169.907 137.599 170.856 137.599C172.169 137.599 172.767 136.923 172.767 135.571V134.674C172.468 135.246 171.792 135.701 170.856 135.701C169.192 135.701 167.983 134.44 167.983 132.672C167.983 130.982 169.14 129.63 170.856 129.63C171.818 129.63 172.468 129.994 172.78 130.618V129.747H173.989V135.532C173.989 137.118 173.209 138.665 170.856 138.665C169.296 138.665 168.126 137.677 167.97 136.338ZM171.038 134.674C172.091 134.674 172.819 133.881 172.819 132.672C172.819 131.463 172.091 130.67 171.038 130.67C169.959 130.67 169.231 131.463 169.231 132.672C169.231 133.894 169.933 134.674 171.038 134.674ZM178.748 135.103C179.788 135.103 180.698 134.323 180.698 132.867C180.698 131.424 179.788 130.644 178.748 130.644C177.708 130.644 176.798 131.424 176.798 132.867C176.798 134.323 177.708 135.103 178.748 135.103ZM178.748 129.552C180.62 129.552 181.946 130.969 181.946 132.867C181.946 134.778 180.62 136.195 178.748 136.195C176.876 136.195 175.55 134.778 175.55 132.867C175.55 130.969 176.876 129.552 178.748 129.552Z" fill="#727272"/>
<rect x="318" y="96" width="104" height="36" rx="18" fill="#E2E2E2"/>
<rect opacity="0.45" x="346" y="111" width="48" height="6" rx="2" fill="#727272"/>
<rect x="96" y="172" width="96" height="54" rx="12" fill="#E2E2E2" fill-opacity="0.5"/>
<rect opacity="0.1" x="204" y="172" width="148" height="6" rx="2" fill="#727272"/>
<rect opacity="0.1" x="204" y="188" width="218" height="6" rx="2" fill="#727272"/>
<rect opacity="0.1" x="204" y="204" width="218" height="6" rx="2" fill="#727272"/>
<rect opacity="0.1" x="204" y="220" width="218" height="6" rx="2" fill="#727272"/>
<rect opacity="0.1" x="96" y="258" width="195" height="6" rx="2" fill="#727272"/>
</g>
<g filter="url(#filter1_b_1_901)">
<rect x="48" y="48" width="800" height="242" fill="#282828" fill-opacity="0.15"/>
</g>
</g>
<g filter="url(#filter2_d_1_901)">
<rect x="124" y="84" width="272" height="173" rx="16" fill="#FDFDFD"/>
<path opacity="0.8" d="M151.71 118.8L148.238 113.074H150.226L152.606 117.232L155 113.074H156.89L153.39 118.8V123H151.71V118.8ZM159.608 121.754C160.616 121.754 161.512 121.012 161.512 119.584C161.512 118.17 160.616 117.442 159.608 117.442C158.614 117.442 157.704 118.17 157.704 119.584C157.704 120.998 158.614 121.754 159.608 121.754ZM159.608 115.972C161.652 115.972 163.15 117.498 163.15 119.584C163.15 121.684 161.652 123.21 159.608 123.21C157.578 123.21 156.08 121.684 156.08 119.584C156.08 117.498 157.578 115.972 159.608 115.972ZM169.169 122.244C168.833 122.86 168.035 123.196 167.237 123.196C165.613 123.196 164.661 121.992 164.661 120.48V116.182H166.285V120.186C166.285 121.026 166.677 121.74 167.657 121.74C168.595 121.74 169.085 121.11 169.085 120.214V116.182H170.709V121.754C170.709 122.314 170.751 122.748 170.779 123H169.225C169.197 122.846 169.169 122.524 169.169 122.244ZM176.719 116.14V117.792C176.537 117.764 176.355 117.75 176.187 117.75C174.927 117.75 174.353 118.478 174.353 119.752V123H172.729V116.182H174.311V117.274C174.633 116.532 175.389 116.098 176.285 116.098C176.481 116.098 176.649 116.126 176.719 116.14ZM184.189 117.47C183.195 117.47 182.313 118.212 182.313 119.584C182.313 120.956 183.195 121.726 184.217 121.726C185.281 121.726 185.771 120.984 185.925 120.466L187.353 120.984C187.031 122.048 186.009 123.21 184.217 123.21C182.215 123.21 180.689 121.656 180.689 119.584C180.689 117.484 182.215 115.972 184.175 115.972C186.009 115.972 187.017 117.12 187.297 118.212L185.841 118.744C185.687 118.142 185.225 117.47 184.189 117.47ZM193.245 122.244C192.909 122.86 192.111 123.196 191.313 123.196C189.689 123.196 188.737 121.992 188.737 120.48V116.182H190.361V120.186C190.361 121.026 190.753 121.74 191.733 121.74C192.671 121.74 193.161 121.11 193.161 120.214V116.182H194.785V121.754C194.785 122.314 194.827 122.748 194.855 123H193.301C193.273 122.846 193.245 122.524 193.245 122.244ZM196.329 121.152L197.743 120.76C197.799 121.376 198.261 121.922 199.129 121.922C199.801 121.922 200.151 121.558 200.151 121.138C200.151 120.774 199.899 120.494 199.353 120.382L198.345 120.158C197.141 119.892 196.511 119.108 196.511 118.17C196.511 116.98 197.603 115.972 199.017 115.972C200.921 115.972 201.537 117.204 201.649 117.876L200.277 118.268C200.221 117.876 199.927 117.246 199.017 117.246C198.443 117.246 198.037 117.61 198.037 118.03C198.037 118.394 198.303 118.66 198.723 118.744L199.759 118.954C201.047 119.234 201.719 120.018 201.719 121.026C201.719 122.062 200.879 123.21 199.143 123.21C197.169 123.21 196.413 121.922 196.329 121.152ZM205.455 114.096V116.182H206.869V117.624H205.455V120.788C205.455 121.39 205.721 121.642 206.323 121.642C206.547 121.642 206.813 121.6 206.883 121.586V122.93C206.785 122.972 206.477 123.084 205.889 123.084C204.629 123.084 203.845 122.328 203.845 121.054V117.624H202.585V116.182H202.935C203.663 116.182 203.985 115.72 203.985 115.118V114.096H205.455ZM211.465 121.754C212.473 121.754 213.369 121.012 213.369 119.584C213.369 118.17 212.473 117.442 211.465 117.442C210.471 117.442 209.561 118.17 209.561 119.584C209.561 120.998 210.471 121.754 211.465 121.754ZM211.465 115.972C213.509 115.972 215.007 117.498 215.007 119.584C215.007 121.684 213.509 123.21 211.465 123.21C209.435 123.21 207.937 121.684 207.937 119.584C207.937 117.498 209.435 115.972 211.465 115.972ZM218.198 123H216.588V116.182H218.142V117.05C218.534 116.35 219.388 115.986 220.158 115.986C221.054 115.986 221.838 116.392 222.202 117.19C222.734 116.294 223.532 115.986 224.414 115.986C225.646 115.986 226.822 116.77 226.822 118.576V123H225.254V118.842C225.254 118.044 224.848 117.442 223.938 117.442C223.084 117.442 222.524 118.114 222.524 118.954V123H220.928V118.842C220.928 118.058 220.536 117.442 219.612 117.442C218.744 117.442 218.198 118.086 218.198 118.954V123ZM233.784 123H232.16V112.864H233.784V123ZM237.407 123H235.797V116.182H237.407V123ZM235.545 113.788C235.545 113.2 236.021 112.724 236.595 112.724C237.183 112.724 237.659 113.2 237.659 113.788C237.659 114.376 237.183 114.838 236.595 114.838C236.021 114.838 235.545 114.376 235.545 113.788ZM241.044 119.066V123H239.42V116.182H241.002V117.092C241.45 116.308 242.262 115.986 243.018 115.986C244.684 115.986 245.482 117.19 245.482 118.688V123H243.858V118.968C243.858 118.128 243.48 117.456 242.458 117.456C241.534 117.456 241.044 118.17 241.044 119.066ZM253.816 116.182L251.016 119.066L253.872 123H251.884L249.882 120.214L249.042 121.096V123H247.432V112.864H249.042V118.94L251.66 116.182H253.816Z" fill="#1B1B1B"/>
<rect x="148.75" y="144.75" width="222.5" height="39.5" rx="5.25" stroke="#A8A8A8" stroke-opacity="0.1" stroke-width="1.5"/>
<path opacity="0.8" d="M166.04 165.604V169H164.912V160.312H166.04V163.9C166.46 163.288 167.132 163.06 167.792 163.06C169.172 163.06 169.856 164.056 169.856 165.34V169H168.728V165.532C168.728 164.728 168.392 164.08 167.384 164.08C166.52 164.08 166.064 164.752 166.04 165.604ZM173.02 161.404V163.228H174.268V164.248H173.02V167.248C173.02 167.776 173.236 168.04 173.824 168.04C173.968 168.04 174.172 168.016 174.268 167.992V168.952C174.172 168.988 173.884 169.06 173.5 169.06C172.516 169.06 171.892 168.46 171.892 167.416V164.248H170.788V163.228H171.1C171.724 163.228 171.988 162.844 171.988 162.34V161.404H173.02ZM177.06 161.404V163.228H178.308V164.248H177.06V167.248C177.06 167.776 177.276 168.04 177.864 168.04C178.008 168.04 178.212 168.016 178.308 167.992V168.952C178.212 168.988 177.924 169.06 177.54 169.06C176.556 169.06 175.932 168.46 175.932 167.416V164.248H174.828V163.228H175.14C175.764 163.228 176.028 162.844 176.028 162.34V161.404H177.06ZM180.645 171.28H179.529V163.228H180.621V164.128C180.933 163.552 181.617 163.096 182.553 163.096C184.281 163.096 185.205 164.428 185.205 166.108C185.205 167.824 184.209 169.156 182.517 169.156C181.629 169.156 180.957 168.736 180.645 168.22V171.28ZM184.053 166.108C184.053 164.956 183.405 164.092 182.349 164.092C181.317 164.092 180.633 164.956 180.633 166.108C180.633 167.296 181.317 168.148 182.349 168.148C183.393 168.148 184.053 167.296 184.053 166.108ZM186.078 167.5L187.098 167.14C187.17 167.74 187.626 168.22 188.442 168.22C189.078 168.22 189.426 167.86 189.426 167.452C189.426 167.092 189.162 166.816 188.682 166.708L187.698 166.492C186.798 166.3 186.258 165.688 186.258 164.872C186.258 163.888 187.182 163.048 188.31 163.048C189.894 163.048 190.386 164.08 190.506 164.596L189.51 164.968C189.462 164.668 189.222 164.008 188.31 164.008C187.734 164.008 187.35 164.38 187.35 164.776C187.35 165.124 187.566 165.376 188.01 165.472L188.946 165.676C189.99 165.904 190.542 166.54 190.542 167.392C190.542 168.208 189.858 169.18 188.43 169.18C186.846 169.18 186.174 168.16 186.078 167.5ZM191.79 168.232C191.79 167.764 192.15 167.392 192.618 167.392C193.086 167.392 193.458 167.764 193.458 168.232C193.458 168.7 193.086 169.06 192.618 169.06C192.15 169.06 191.79 168.7 191.79 168.232ZM191.778 164.008C191.778 163.54 192.138 163.168 192.606 163.168C193.074 163.168 193.446 163.54 193.446 164.008C193.446 164.476 193.074 164.836 192.606 164.836C192.138 164.836 191.778 164.476 191.778 164.008ZM199.703 160.492L195.587 169H194.495L198.611 160.492H199.703ZM203.145 160.492L199.029 169H197.937L202.053 160.492H203.145ZM205.381 169H204.265V160.312H205.381V164.044C205.657 163.528 206.329 163.06 207.289 163.06C209.041 163.06 209.941 164.404 209.941 166.084C209.941 167.8 208.969 169.156 207.253 169.156C206.401 169.156 205.741 168.784 205.381 168.16V169ZM208.789 166.084C208.789 164.836 208.129 164.056 207.085 164.056C206.089 164.056 205.369 164.836 205.369 166.084C205.369 167.332 206.089 168.148 207.085 168.148C208.117 168.148 208.789 167.332 208.789 166.084ZM214.473 163.168V164.368C214.305 164.344 214.137 164.332 213.981 164.332C213.033 164.332 212.397 164.836 212.397 166.108V169H211.269V163.228H212.373V164.236C212.793 163.348 213.513 163.132 214.101 163.132C214.257 163.132 214.413 163.156 214.473 163.168ZM216.625 169H215.509V163.228H216.625V169ZM215.257 161.044C215.257 160.588 215.617 160.228 216.061 160.228C216.517 160.228 216.877 160.588 216.877 161.044C216.877 161.488 216.517 161.848 216.061 161.848C215.617 161.848 215.257 161.488 215.257 161.044ZM219.146 165.52H222.302C222.278 164.692 221.738 164.044 220.718 164.044C219.77 164.044 219.194 164.776 219.146 165.52ZM222.47 167.02L223.442 167.356C223.118 168.376 222.194 169.18 220.85 169.18C219.302 169.18 217.946 168.052 217.946 166.096C217.946 164.284 219.254 163.048 220.706 163.048C222.482 163.048 223.478 164.272 223.478 166.072C223.478 166.216 223.466 166.36 223.454 166.432H219.11C219.134 167.464 219.878 168.184 220.85 168.184C221.786 168.184 222.254 167.668 222.47 167.02ZM227.738 164.248H226.346V169H225.182V164.248H224.114V163.228H225.182V162.256C225.182 160.972 226.034 160.276 227.078 160.276C227.462 160.276 227.702 160.36 227.75 160.396V161.404C227.69 161.38 227.546 161.332 227.258 161.332C226.862 161.332 226.346 161.524 226.346 162.316V163.228H227.738V164.248ZM229.905 169H228.789V160.312H229.905V164.044C230.181 163.528 230.853 163.06 231.813 163.06C233.565 163.06 234.465 164.404 234.465 166.084C234.465 167.8 233.493 169.156 231.777 169.156C230.925 169.156 230.265 168.784 229.905 168.16V169ZM233.313 166.084C233.313 164.836 232.653 164.056 231.609 164.056C230.613 164.056 229.893 164.836 229.893 166.084C229.893 167.332 230.613 168.148 231.609 168.148C232.641 168.148 233.313 167.332 233.313 166.084ZM236.61 165.52H239.766C239.743 164.692 239.202 164.044 238.182 164.044C237.234 164.044 236.658 164.776 236.61 165.52ZM239.935 167.02L240.907 167.356C240.582 168.376 239.659 169.18 238.314 169.18C236.766 169.18 235.41 168.052 235.41 166.096C235.41 164.284 236.718 163.048 238.17 163.048C239.946 163.048 240.942 164.272 240.942 166.072C240.942 166.216 240.93 166.36 240.918 166.432H236.574C236.598 167.464 237.342 168.184 238.314 168.184C239.25 168.184 239.719 167.668 239.935 167.02ZM245.441 163.168V164.368C245.273 164.344 245.105 164.332 244.949 164.332C244.001 164.332 243.365 164.836 243.365 166.108V169H242.237V163.228H243.341V164.236C243.761 163.348 244.481 163.132 245.069 163.132C245.225 163.132 245.381 163.156 245.441 163.168ZM249.68 163.168V164.368C249.512 164.344 249.344 164.332 249.188 164.332C248.24 164.332 247.604 164.836 247.604 166.108V169H246.476V163.228H247.58V164.236C248 163.348 248.72 163.132 249.308 163.132C249.464 163.132 249.62 163.156 249.68 163.168ZM252.324 171.412H251.088L252.528 168.364L250.044 163.228H251.34L253.14 167.212L254.868 163.228H256.08L252.324 171.412ZM256.215 168.232C256.215 167.764 256.575 167.392 257.043 167.392C257.511 167.392 257.883 167.764 257.883 168.232C257.883 168.7 257.511 169.06 257.043 169.06C256.575 169.06 256.215 168.7 256.215 168.232ZM261.761 164.092C260.849 164.092 260.009 164.764 260.009 166.108C260.009 167.428 260.837 168.136 261.773 168.136C262.853 168.136 263.249 167.404 263.381 166.948L264.377 167.38C264.101 168.208 263.273 169.18 261.773 169.18C260.093 169.18 258.857 167.86 258.857 166.108C258.857 164.308 260.117 163.048 261.761 163.048C263.297 163.048 264.089 164.008 264.329 164.884L263.309 165.316C263.165 164.752 262.745 164.092 261.761 164.092ZM268.158 168.172C269.118 168.172 269.958 167.452 269.958 166.108C269.958 164.776 269.118 164.056 268.158 164.056C267.198 164.056 266.358 164.776 266.358 166.108C266.358 167.452 267.198 168.172 268.158 168.172ZM268.158 163.048C269.886 163.048 271.11 164.356 271.11 166.108C271.11 167.872 269.886 169.18 268.158 169.18C266.43 169.18 265.206 167.872 265.206 166.108C265.206 164.356 266.43 163.048 268.158 163.048ZM273.547 169H272.431V163.228H273.511V163.996C273.871 163.36 274.591 163.06 275.263 163.06C275.983 163.06 276.679 163.408 276.991 164.152C277.447 163.324 278.191 163.06 278.923 163.06C279.931 163.06 280.915 163.744 280.915 165.256V169H279.799V165.376C279.799 164.62 279.427 164.056 278.575 164.056C277.783 164.056 277.243 164.68 277.243 165.508V169H276.115V165.376C276.115 164.632 275.755 164.056 274.891 164.056C274.087 164.056 273.547 164.656 273.547 165.52V169ZM287.185 160.492L283.069 169H281.977L286.093 160.492H287.185ZM289.42 169H288.304V160.312H289.42V164.044C289.696 163.528 290.368 163.06 291.328 163.06C293.08 163.06 293.98 164.404 293.98 166.084C293.98 167.8 293.008 169.156 291.292 169.156C290.44 169.156 289.78 168.784 289.42 168.16V169ZM292.828 166.084C292.828 164.836 292.168 164.056 291.124 164.056C290.128 164.056 289.408 164.836 289.408 166.084C289.408 167.332 290.128 168.148 291.124 168.148C292.156 168.148 292.828 167.332 292.828 166.084ZM298.513 163.168V164.368C298.345 164.344 298.177 164.332 298.021 164.332C297.073 164.332 296.437 164.836 296.437 166.108V169H295.309V163.228H296.413V164.236C296.833 163.348 297.553 163.132 298.141 163.132C298.297 163.132 298.453 163.156 298.513 163.168ZM300.665 169H299.549V163.228H300.665V169ZM299.297 161.044C299.297 160.588 299.657 160.228 300.101 160.228C300.557 160.228 300.917 160.588 300.917 161.044C300.917 161.488 300.557 161.848 300.101 161.848C299.657 161.848 299.297 161.488 299.297 161.044ZM303.186 165.52H306.342C306.318 164.692 305.778 164.044 304.758 164.044C303.81 164.044 303.234 164.776 303.186 165.52ZM306.51 167.02L307.482 167.356C307.158 168.376 306.234 169.18 304.89 169.18C303.342 169.18 301.986 168.052 301.986 166.096C301.986 164.284 303.294 163.048 304.746 163.048C306.522 163.048 307.518 164.272 307.518 166.072C307.518 166.216 307.506 166.36 307.494 166.432H303.15C303.174 167.464 303.918 168.184 304.89 168.184C305.826 168.184 306.294 167.668 306.51 167.02ZM311.778 164.248H310.386V169H309.222V164.248H308.154V163.228H309.222V162.256C309.222 160.972 310.074 160.276 311.118 160.276C311.502 160.276 311.742 160.36 311.79 160.396V161.404C311.73 161.38 311.586 161.332 311.298 161.332C310.902 161.332 310.386 161.524 310.386 162.316V163.228H311.778V164.248ZM317.192 160.492L313.076 169H311.984L316.1 160.492H317.192ZM319.685 171.412H318.449L319.889 168.364L317.405 163.228H318.701L320.501 167.212L322.229 163.228H323.441L319.685 171.412ZM325.53 171.28H324.414V163.228H325.506V164.128C325.818 163.552 326.502 163.096 327.438 163.096C329.166 163.096 330.09 164.428 330.09 166.108C330.09 167.824 329.094 169.156 327.402 169.156C326.514 169.156 325.842 168.736 325.53 168.22V171.28ZM328.938 166.108C328.938 164.956 328.29 164.092 327.234 164.092C326.202 164.092 325.518 164.956 325.518 166.108C325.518 167.296 326.202 168.148 327.234 168.148C328.278 168.148 328.938 167.296 328.938 166.108ZM332.897 161.404V163.228H334.145V164.248H332.897V167.248C332.897 167.776 333.113 168.04 333.701 168.04C333.845 168.04 334.049 168.016 334.145 167.992V168.952C334.049 168.988 333.761 169.06 333.377 169.06C332.393 169.06 331.769 168.46 331.769 167.416V164.248H330.665V163.228H330.977C331.601 163.228 331.865 162.844 331.865 162.34V161.404H332.897ZM336.481 169H335.365V160.312H336.481V164.044C336.757 163.528 337.429 163.06 338.389 163.06C340.141 163.06 341.041 164.404 341.041 166.084C341.041 167.8 340.069 169.156 338.353 169.156C337.501 169.156 336.841 168.784 336.481 168.16V169ZM339.889 166.084C339.889 164.836 339.229 164.056 338.185 164.056C337.189 164.056 336.469 164.836 336.469 166.084C336.469 167.332 337.189 168.148 338.185 168.148C339.217 168.148 339.889 167.332 339.889 166.084ZM351.166 168.292C351.166 168.724 350.83 169.06 350.398 169.06C349.966 169.06 349.618 168.724 349.618 168.292C349.618 167.86 349.966 167.512 350.398 167.512C350.83 167.512 351.166 167.86 351.166 168.292ZM347.422 168.292C347.422 168.724 347.086 169.06 346.654 169.06C346.222 169.06 345.874 168.724 345.874 168.292C345.874 167.86 346.222 167.512 346.654 167.512C347.086 167.512 347.422 167.86 347.422 168.292ZM343.69 168.292C343.69 168.724 343.354 169.06 342.922 169.06C342.49 169.06 342.142 168.724 342.142 168.292C342.142 167.86 342.49 167.512 342.922 167.512C343.354 167.512 343.69 167.86 343.69 168.292Z" fill="#1B1B1B"/>
<rect x="148" y="197" width="224" height="36" rx="18" fill="#E2E2E2"/>
<path d="M248.128 220.21C245.454 220.21 243.116 218.278 243.116 215.044C243.116 211.81 245.538 209.864 248.114 209.864C250.634 209.864 252.132 211.348 252.58 213.084L250.998 213.616C250.704 212.412 249.78 211.446 248.114 211.446C246.476 211.446 244.838 212.636 244.838 215.044C244.838 217.368 246.434 218.6 248.128 218.6C249.794 218.6 250.746 217.536 251.082 216.416L252.622 216.92C252.174 218.6 250.662 220.21 248.128 220.21ZM257.116 218.754C258.124 218.754 259.02 218.012 259.02 216.584C259.02 215.17 258.124 214.442 257.116 214.442C256.122 214.442 255.212 215.17 255.212 216.584C255.212 217.998 256.122 218.754 257.116 218.754ZM257.116 212.972C259.16 212.972 260.658 214.498 260.658 216.584C260.658 218.684 259.16 220.21 257.116 220.21C255.086 220.21 253.588 218.684 253.588 216.584C253.588 214.498 255.086 212.972 257.116 212.972ZM263.848 222.66H262.238V213.182H263.806V214.106C264.142 213.518 264.926 213.028 265.976 213.028C267.992 213.028 269.126 214.568 269.126 216.584C269.126 218.628 267.88 220.168 265.92 220.168C264.94 220.168 264.198 219.748 263.848 219.23V222.66ZM267.502 216.584C267.502 215.31 266.76 214.47 265.668 214.47C264.604 214.47 263.834 215.31 263.834 216.584C263.834 217.886 264.604 218.726 265.668 218.726C266.746 218.726 267.502 217.886 267.502 216.584ZM272.64 222.758H270.904L272.542 219.188L269.63 213.182H271.464L273.424 217.494L275.258 213.182H276.98L272.64 222.758Z" fill="#1B1B1B"/>
<path d="M370.375 102.375L377.625 109.625M377.625 102.375L370.375 109.625" stroke="#727272" stroke-width="1.5" stroke-linecap="round"/>
</g>
<defs>
<filter id="filter0_f_1_901" x="-48" y="-16" width="509" height="418" filterUnits="userSpaceOnUse" color-interpolation-filters="sRGB">
<feFlood flood-opacity="0" result="BackgroundImageFix"/>
<feBlend mode="normal" in="SourceGraphic" in2="BackgroundImageFix" result="shape"/>
<feGaussianBlur stdDeviation="40" result="effect1_foregroundBlur_1_901"/>
</filter>
<filter id="filter1_b_1_901" x="40" y="40" width="816" height="258" filterUnits="userSpaceOnUse" color-interpolation-filters="sRGB">
<feFlood flood-opacity="0" result="BackgroundImageFix"/>
<feGaussianBlur in="BackgroundImageFix" stdDeviation="4"/>
<feComposite in2="SourceAlpha" operator="in" result="effect1_backgroundBlur_1_901"/>
<feBlend mode="normal" in="SourceGraphic" in2="effect1_backgroundBlur_1_901" result="shape"/>
</filter>
<filter id="filter2_d_1_901" x="100" y="84" width="320" height="221" filterUnits="userSpaceOnUse" color-interpolation-filters="sRGB">
<feFlood flood-opacity="0" result="BackgroundImageFix"/>
<feColorMatrix in="SourceAlpha" type="matrix" values="0 0 0 0 0 0 0 0 0 0 0 0 0 0 0 0 0 0 127 0" result="hardAlpha"/>
<feMorphology radius="8" operator="erode" in="SourceAlpha" result="effect1_dropShadow_1_901"/>
<feOffset dy="24"/>
<feGaussianBlur stdDeviation="16"/>
<feComposite in2="hardAlpha" operator="out"/>
<feColorMatrix type="matrix" values="0 0 0 0 0.0705882 0 0 0 0 0.0705882 0 0 0 0 0.0705882 0 0 0 0.05 0"/>
<feBlend mode="multiply" in2="BackgroundImageFix" result="effect1_dropShadow_1_901"/>
<feBlend mode="normal" in="SourceGraphic" in2="effect1_dropShadow_1_901" result="shape"/>
</filter>
<linearGradient id="paint0_linear_1_901" x1="48" y1="169.5" x2="847" y2="169.5" gradientUnits="userSpaceOnUse">
<stop offset="0.799444"/>
<stop offset="1" stop-opacity="0"/>
</linearGradient>
<linearGradient id="paint1_linear_1_901" x1="448" y1="48" x2="448" y2="290" gradientUnits="userSpaceOnUse">
<stop offset="0.515188"/>
<stop offset="1" stop-opacity="0"/>
</linearGradient>
<clipPath id="clip0_1_901">
<path d="M48 73.6C48 64.6392 48 60.1587 49.7439 56.7362C51.2779 53.7256 53.7256 51.2779 56.7362 49.7439C60.1587 48 64.6392 48 73.6 48H848V292H73.6C64.6391 292 60.1587 292 56.7362 290.256C53.7256 288.722 51.2779 286.274 49.7439 283.264C48 279.841 48 275.361 48 266.4V73.6Z" fill="white"/>
</clipPath>
</defs>
</svg>
