<svg width="472" height="388" viewBox="0 0 472 388" fill="none" xmlns="http://www.w3.org/2000/svg">
<g filter="url(#filter0_f_1_893)">
<rect x="32" y="50" width="349" height="258" rx="16" fill="#D9D9D9" fill-opacity="0.75" style="mix-blend-mode:multiply"/>
</g>
<mask id="mask0_1_893" style="mask-type:alpha" maskUnits="userSpaceOnUse" x="48" y="48" width="422" height="242">
<path d="M48 73.6C48 64.6392 48 60.1587 49.7439 56.7362C51.2779 53.7256 53.7256 51.2779 56.7362 49.7439C60.1587 48 64.6392 48 73.6 48H470V290H73.6C64.6392 290 60.1587 290 56.7362 288.256C53.7256 286.722 51.2779 284.274 49.7439 281.264C48 277.841 48 273.361 48 264.4V73.6Z" fill="url(#paint0_linear_1_893)"/>
</mask>
<g mask="url(#mask0_1_893)">
</g>
<g clip-path="url(#clip0_1_893)">
<path d="M48 73.6C48 64.6392 48 60.1587 49.7439 56.7362C51.2779 53.7256 53.7256 51.2779 56.7362 49.7439C60.1587 48 64.6392 48 73.6 48H768V292H73.6C64.6392 292 60.1587 292 56.7362 290.256C53.7256 288.722 51.2779 286.274 49.7439 283.264C48 279.841 48 275.361 48 266.4V73.6Z" fill="#F1F1F1"/>
<circle cx="102" cy="108" r="6" fill="#00A656"/>
<path opacity="0.8" d="M122.228 114.27C119.564 114.27 117.476 112.632 117.476 109.554V101.238H119.618V109.428C119.618 111.228 120.608 112.218 122.228 112.218C123.866 112.218 124.838 111.228 124.838 109.428V101.238H126.998V109.554C126.998 112.632 124.91 114.27 122.228 114.27ZM132.278 114H130.082V101.238H132.278V114ZM134.654 112.65C134.654 111.84 135.302 111.174 136.112 111.174C136.922 111.174 137.588 111.84 137.588 112.65C137.588 113.46 136.922 114.108 136.112 114.108C135.302 114.108 134.654 113.46 134.654 112.65ZM141.884 114H139.796V100.968H141.884V114ZM146.542 114H144.472V105.234H146.542V114ZM144.148 102.156C144.148 101.4 144.76 100.788 145.498 100.788C146.254 100.788 146.866 101.4 146.866 102.156C146.866 102.912 146.254 103.506 145.498 103.506C144.76 103.506 144.148 102.912 144.148 102.156ZM157.212 105.234L153.774 114H151.686L148.122 105.234H150.426L152.748 111.498L155.016 105.234H157.212ZM160.136 108.654H164.438C164.402 107.628 163.718 106.71 162.278 106.71C160.964 106.71 160.208 107.718 160.136 108.654ZM164.672 110.94L166.436 111.498C165.968 113.028 164.582 114.27 162.476 114.27C160.1 114.27 157.994 112.542 157.994 109.572C157.994 106.8 160.046 104.964 162.26 104.964C164.96 104.964 166.544 106.746 166.544 109.518C166.544 109.86 166.508 110.148 166.49 110.184H160.082C160.136 111.516 161.18 112.47 162.476 112.47C163.736 112.47 164.384 111.804 164.672 110.94Z" fill="#1B1B1B"/>
<path d="M97.235 126.783H100.238C101.993 126.783 103.02 127.823 103.02 129.279C103.02 130.267 102.448 130.969 101.642 131.268C102.695 131.528 103.306 132.464 103.306 133.491C103.306 134.947 102.149 136 100.459 136H97.235V126.783ZM98.509 130.813H100.095C101.122 130.813 101.733 130.202 101.733 129.344C101.733 128.473 101.096 127.901 100.043 127.901H98.509V130.813ZM98.509 134.882H100.277C101.304 134.882 102.006 134.31 102.006 133.413C102.006 132.529 101.447 131.905 100.329 131.905H98.509V134.882ZM108.381 129.682V130.982C108.199 130.956 108.017 130.943 107.848 130.943C106.821 130.943 106.132 131.489 106.132 132.867V136H104.91V129.747H106.106V130.839C106.561 129.877 107.341 129.643 107.978 129.643C108.147 129.643 108.316 129.669 108.381 129.682ZM109.217 134.323C109.217 133.205 110.036 132.581 111.115 132.425L112.805 132.178C113.182 132.126 113.286 131.931 113.286 131.71C113.286 131.099 112.883 130.592 111.934 130.592C111.076 130.592 110.595 131.125 110.517 131.853L109.347 131.58C109.477 130.384 110.556 129.552 111.908 129.552C113.78 129.552 114.508 130.618 114.508 131.84V134.973C114.508 135.519 114.56 135.844 114.586 136H113.39C113.364 135.844 113.325 135.61 113.325 135.155C113.052 135.597 112.428 136.195 111.31 136.195C110.036 136.195 109.217 135.311 109.217 134.323ZM111.479 135.168C112.48 135.168 113.286 134.687 113.286 133.322V133.036L111.375 133.322C110.855 133.4 110.465 133.699 110.465 134.258C110.465 134.726 110.855 135.168 111.479 135.168ZM117.282 132.854C117.282 134.141 117.945 135.09 119.115 135.09C120.233 135.09 120.922 134.115 120.922 132.828C120.922 131.541 120.246 130.657 119.128 130.657C118.01 130.657 117.282 131.567 117.282 132.854ZM120.935 135.155V135.051C120.636 135.649 119.973 136.169 118.998 136.169C117.165 136.169 116.034 134.713 116.034 132.854C116.034 131.086 117.23 129.578 118.998 129.578C120.103 129.578 120.701 130.124 120.909 130.631V126.588H122.118V134.843C122.118 135.441 122.17 135.896 122.183 136H121C120.974 135.857 120.935 135.532 120.935 135.155ZM125.314 136H124.105V129.747H125.314V136ZM123.832 127.381C123.832 126.887 124.222 126.497 124.703 126.497C125.197 126.497 125.587 126.887 125.587 127.381C125.587 127.862 125.197 128.252 124.703 128.252C124.222 128.252 123.832 127.862 123.832 127.381ZM128.514 132.386V136H127.292V129.747H128.488V130.644C128.943 129.864 129.684 129.565 130.412 129.565C131.907 129.565 132.648 130.644 132.648 132.035V136H131.426V132.243C131.426 131.372 131.062 130.67 129.97 130.67C129.008 130.67 128.514 131.437 128.514 132.386ZM134.137 136.338L135.32 136.065C135.411 136.936 136.074 137.599 137.023 137.599C138.336 137.599 138.934 136.923 138.934 135.571V134.674C138.635 135.246 137.959 135.701 137.023 135.701C135.359 135.701 134.15 134.44 134.15 132.672C134.15 130.982 135.307 129.63 137.023 129.63C137.985 129.63 138.635 129.994 138.947 130.618V129.747H140.156V135.532C140.156 137.118 139.376 138.665 137.023 138.665C135.463 138.665 134.293 137.677 134.137 136.338ZM137.205 134.674C138.258 134.674 138.986 133.881 138.986 132.672C138.986 131.463 138.258 130.67 137.205 130.67C136.126 130.67 135.398 131.463 135.398 132.672C135.398 133.894 136.1 134.674 137.205 134.674ZM151.492 136L150.322 134.778C149.568 135.623 148.762 136.156 147.735 136.156C145.993 136.156 145.07 134.986 145.07 133.803C145.07 132.607 145.72 131.957 146.695 131.229L146.825 131.125L146.656 130.943C146.227 130.488 145.551 129.786 145.551 128.889C145.551 127.394 146.786 126.588 147.93 126.588C149.321 126.588 150.374 127.459 150.374 128.837C150.374 129.747 149.724 130.397 149.074 130.878L148.606 131.229L150.322 133.01L152.376 130.722V132.399L151.128 133.842L153.221 136H151.492ZM147.748 134.986C148.45 134.986 148.957 134.531 149.464 133.972L149.503 133.92L147.631 131.957L147.163 132.308C146.721 132.646 146.383 133.062 146.383 133.699C146.383 134.323 146.903 134.986 147.748 134.986ZM146.812 128.811C146.812 129.331 147.215 129.786 147.514 130.098L147.8 130.41L148.424 129.942C148.97 129.539 149.113 129.188 149.113 128.798C149.113 128.187 148.619 127.68 147.943 127.68C147.41 127.68 146.812 128.083 146.812 128.811ZM158.868 136H157.646V126.588H158.868V136ZM163.627 135.103C164.667 135.103 165.577 134.323 165.577 132.867C165.577 131.424 164.667 130.644 163.627 130.644C162.587 130.644 161.677 131.424 161.677 132.867C161.677 134.323 162.587 135.103 163.627 135.103ZM163.627 129.552C165.499 129.552 166.825 130.969 166.825 132.867C166.825 134.778 165.499 136.195 163.627 136.195C161.755 136.195 160.429 134.778 160.429 132.867C160.429 130.969 161.755 129.552 163.627 129.552ZM167.97 136.338L169.153 136.065C169.244 136.936 169.907 137.599 170.856 137.599C172.169 137.599 172.767 136.923 172.767 135.571V134.674C172.468 135.246 171.792 135.701 170.856 135.701C169.192 135.701 167.983 134.44 167.983 132.672C167.983 130.982 169.14 129.63 170.856 129.63C171.818 129.63 172.468 129.994 172.78 130.618V129.747H173.989V135.532C173.989 137.118 173.209 138.665 170.856 138.665C169.296 138.665 168.126 137.677 167.97 136.338ZM171.038 134.674C172.091 134.674 172.819 133.881 172.819 132.672C172.819 131.463 172.091 130.67 171.038 130.67C169.959 130.67 169.231 131.463 169.231 132.672C169.231 133.894 169.933 134.674 171.038 134.674ZM178.748 135.103C179.788 135.103 180.698 134.323 180.698 132.867C180.698 131.424 179.788 130.644 178.748 130.644C177.708 130.644 176.798 131.424 176.798 132.867C176.798 134.323 177.708 135.103 178.748 135.103ZM178.748 129.552C180.62 129.552 181.946 130.969 181.946 132.867C181.946 134.778 180.62 136.195 178.748 136.195C176.876 136.195 175.55 134.778 175.55 132.867C175.55 130.969 176.876 129.552 178.748 129.552Z" fill="#727272"/>
<rect x="320" y="96" width="104" height="36" rx="18" fill="#E2E2E2"/>
<rect opacity="0.45" x="348" y="111" width="48" height="6" rx="2" fill="#727272"/>
<rect x="96" y="172" width="96" height="91" rx="12" fill="#E2E2E2" fill-opacity="0.5"/>
<rect opacity="0.1" x="216" y="172" width="128" height="6" rx="2" fill="#727272"/>
<rect opacity="0.1" x="216" y="188" width="208" height="6" rx="2" fill="#727272"/>
<rect opacity="0.1" x="216" y="204" width="208" height="6" rx="2" fill="#727272"/>
<rect opacity="0.1" x="216" y="220" width="208" height="6" rx="2" fill="#727272"/>
</g>
<defs>
<filter id="filter0_f_1_893" x="-48" y="-30" width="509" height="418" filterUnits="userSpaceOnUse" color-interpolation-filters="sRGB">
<feFlood flood-opacity="0" result="BackgroundImageFix"/>
<feBlend mode="normal" in="SourceGraphic" in2="BackgroundImageFix" result="shape"/>
<feGaussianBlur stdDeviation="40" result="effect1_foregroundBlur_1_893"/>
</filter>
<linearGradient id="paint0_linear_1_893" x1="259" y1="48" x2="259" y2="290" gradientUnits="userSpaceOnUse">
<stop offset="0.799444"/>
<stop offset="1" stop-opacity="0"/>
</linearGradient>
<clipPath id="clip0_1_893">
<path d="M48 73.6C48 64.6392 48 60.1587 49.7439 56.7362C51.2779 53.7256 53.7256 51.2779 56.7362 49.7439C60.1587 48 64.6392 48 73.6 48H768V292H73.6C64.6392 292 60.1587 292 56.7362 290.256C53.7256 288.722 51.2779 286.274 49.7439 283.264C48 279.841 48 275.361 48 266.4V73.6Z" fill="white"/>
</clipPath>
</defs>
</svg>
